<svg width="325" height="325" viewBox="0 0 325 325" fill="none" xmlns="http://www.w3.org/2000/svg">
<path d="M28.8499 238.808C29.9977 238.712 30.7603 238.684 31.5148 238.579C40.206 237.389 48.5961 238.465 56.7114 241.808C63.769 244.716 69.6648 249.223 75.0931 254.531C89.2586 268.379 107.815 269.277 122.765 256.911C126.187 254.082 129.219 250.762 132.745 248.079C144.502 239.133 157.664 235.541 172.291 238.716C182.542 240.941 191.076 246.325 198.423 253.7C204.824 260.126 212.265 264.561 221.478 265.367C232.445 266.329 241.379 261.984 249.384 254.816C253.694 250.957 258.553 247.714 263.096 244.108C264.067 243.337 265.099 242.332 265.512 241.214C273.822 218.693 282.056 196.143 290.273 173.587C291.622 169.889 289.804 167.322 285.888 167.32C264.878 167.306 243.865 167.298 222.855 167.362C221.924 167.364 220.782 167.864 220.1 168.51C216.875 171.571 213.664 174.661 210.666 177.94C208.414 180.402 205.858 181.321 202.541 181.317C146.715 181.251 90.8901 181.269 35.0627 181.273C30.0097 181.273 28.8499 182.455 28.8499 187.536C28.8499 203.64 28.8499 219.746 28.8499 235.85V238.804V238.808ZM260.782 181.392C264.679 181.458 267.852 184.64 267.796 188.431C267.74 192.238 264.457 195.445 260.674 195.391C256.869 195.336 253.658 192.077 253.69 188.301C253.725 184.432 256.911 181.327 260.784 181.392H260.782ZM232.596 181.367C236.463 181.363 239.679 184.502 239.714 188.313C239.748 192.095 236.495 195.385 232.712 195.389C228.909 195.393 225.644 192.184 225.612 188.411C225.58 184.55 228.729 181.373 232.594 181.367H232.596Z" fill="#70727D"/>
<path d="M322.386 267.638C321.062 266.259 319.627 264.967 318.134 263.773C306.605 254.558 293.587 250.603 278.874 252.864C267.644 254.59 258.317 259.928 250.314 267.875C236.379 281.711 218 283.262 203.108 271.87C200.621 269.968 198.416 267.694 196.116 265.555C179.033 249.67 155.909 247.167 136.715 259.443C132.495 262.142 128.718 265.619 125.036 269.059C111.049 282.119 93.6324 283.248 78.7324 271.782C76.1898 269.825 73.9804 267.443 71.5844 265.292C62.0644 256.745 51.0414 251.855 37.7789 251.56C23.814 251.907 11.9041 257.663 2.01488 267.781C-1.81597 271.7 0.0984513 278.099 5.37215 279.438C8.34212 280.192 10.6619 278.966 12.7931 276.889C27.4101 262.655 45.8239 261.959 61.332 275.043C63.9668 277.264 66.2926 279.859 68.9776 282.012C81.303 291.909 95.1414 296.12 110.832 292.481C121.05 290.111 129.396 284.499 136.821 277.202C146.616 267.576 158.113 263.249 171.827 267.231C179.027 269.32 184.455 274.1 189.897 279.054C205.602 293.35 223.544 297.037 243.493 289.257C250.22 286.634 255.809 282.241 260.968 277.208C270.012 268.383 280.656 264.152 293.403 266.761C300.924 268.3 307.067 272.338 312.511 277.609C315.427 280.433 319.711 280.421 322.428 277.736C325.262 274.935 325.288 270.658 322.386 267.638Z" fill="#70727D"/>
<path d="M42.864 164.459C42.864 165.296 42.864 166.133 42.864 167.309H45.1838C96.6405 167.309 148.097 167.319 199.554 167.249C200.676 167.249 202.006 166.586 202.873 165.822C205.111 163.847 207.374 161.82 209.21 159.487C213.162 154.462 218.056 152.347 224.453 153.121C227.809 153.527 231.254 153.193 234.973 153.193C234.473 152.124 234.172 151.435 233.835 150.765C229.864 142.827 225.834 134.916 221.959 126.931C221.227 125.422 220.36 125.039 218.804 125.045C202.7 125.095 186.596 125.075 170.492 125.075C163.053 125.075 155.614 125.123 148.177 125.057C143.498 125.015 140.337 120.937 141.383 116.484C142.147 113.231 144.973 111.164 148.759 111.164C169.465 111.156 190.17 111.16 210.876 111.16C211.783 111.16 212.692 111.16 213.766 111.16C213.611 110.619 213.565 110.239 213.404 109.918C209.539 102.184 205.684 94.4442 201.773 86.7323C200.519 84.262 198.42 83.054 195.621 83.068C191.579 83.0861 187.538 83.0721 183.249 83.0721V82.9115H169.126V82.9256H127.101V82.9115H125.708L101.055 34.3064C99.8432 31.9124 97.379 30.4113 94.696 30.4274L81.2187 30.5117C77.3257 30.5357 74.1831 33.6984 74.1831 37.5934V82.9075H56.7065C56.7044 82.9597 56.7004 83.0098 56.6984 83.064C54.772 83.064 53.0843 83.1965 51.4247 83.0399C45.4888 82.4841 42.7516 86.923 42.7837 91.5264C42.9543 115.836 42.864 140.15 42.864 164.461V164.459ZM120.521 125.037C117.994 125.129 115.46 125.055 112.929 125.055V125.065C110.551 125.065 108.173 125.125 105.797 125.051C102.011 124.935 99.1047 121.985 99.0345 118.292C98.9663 114.61 102.021 111.265 105.741 111.188C110.647 111.09 115.558 111.088 120.464 111.192C124.135 111.271 127.053 114.441 127.081 118.118C127.109 121.844 124.269 124.898 120.519 125.035L120.521 125.037Z" fill="#70727D"/>
</svg>
