<svg width="285" height="286" viewBox="0 0 285 286" fill="none" xmlns="http://www.w3.org/2000/svg">
<path d="M76.8909 0.9767C73.1922 0.9767 70.11 2.2096 67.6442 4.6754C65.1784 7.1412 63.9455 10.2234 63.9455 13.9221V32.4156H33.6161C29.1777 32.4156 24.8626 33.2787 20.6707 35.0047C16.7254 36.7308 13.15 39.1966 9.94447 42.4021C6.98551 45.3611 4.643 48.9365 2.91694 53.1284C1.19088 57.0736 0.32785 61.2655 0.32785 65.7039V101.951C0.32785 104.17 1.06759 106.02 2.54707 107.499C4.02655 108.979 5.8759 109.718 8.09512 109.718H276.621C278.84 109.718 280.689 108.979 282.169 107.499C283.648 106.02 284.388 104.17 284.388 101.951V65.7039C284.388 56.5805 281.182 48.8132 274.771 42.4021C268.36 35.7445 260.47 32.4156 251.1 32.4156H220.77V13.9221C220.77 10.2234 219.537 7.1412 217.072 4.6754C214.606 2.2096 211.524 0.9767 207.825 0.9767C204.373 0.9767 201.414 2.2096 198.948 4.6754C196.482 7.1412 195.249 10.2234 195.249 13.9221V32.4156H89.4665V13.9221C89.4665 10.2234 88.2336 7.1412 85.7678 4.6754C83.302 2.2096 80.343 0.9767 76.8909 0.9767ZM8.09512 127.102H276.621C278.84 127.102 280.689 127.965 282.169 129.691C283.648 131.171 284.388 133.02 284.388 135.239V251.749C284.388 256.187 283.525 260.502 281.799 264.694C280.073 268.639 277.73 272.215 274.771 275.42C271.566 278.379 267.867 280.722 263.675 282.448C259.73 284.174 255.538 285.037 251.1 285.037H33.6161C29.1777 285.037 24.8626 284.174 20.6707 282.448C16.7254 280.722 13.15 278.379 9.94447 275.42C6.98551 272.215 4.643 268.639 2.91694 264.694C1.19088 260.502 0.32785 256.187 0.32785 251.749V135.239C0.32785 133.02 1.06759 131.171 2.54707 129.691C4.02655 127.965 5.8759 127.102 8.09512 127.102ZM63.5756 158.911C59.1372 158.911 55.3152 160.514 52.1096 163.719C49.1507 166.678 47.6712 170.254 47.6712 174.446C47.6712 178.884 49.1507 182.706 52.1096 185.912C55.3152 188.871 59.1372 190.35 63.5756 190.35H142.358C146.796 190.35 150.495 188.871 153.454 185.912C156.66 182.706 158.262 178.884 158.262 174.446C158.262 170.254 156.66 166.678 153.454 163.719C150.495 160.514 146.796 158.911 142.358 158.911H63.5756Z" fill="#70727D"/>
</svg>
