<svg width="700" height="699" viewBox="0 0 700 699" fill="none" xmlns="http://www.w3.org/2000/svg">
<mask id="mask0_219_1209" style="mask-type:alpha" maskUnits="userSpaceOnUse" x="0" y="0" width="700" height="699">
<path d="M1.32025 311.921C4.58346 260.157 51.6619 150.734 201.602 149.611C351.542 148.488 336.657 17.9365 456.6 1.99815C576.544 -13.9402 608.733 78.1201 620.715 135.654C632.696 193.188 711.213 243.099 697.435 346.774C683.656 450.45 571.773 662.696 361.137 695.281C150.502 727.866 143.656 533.407 70.8563 492.545C-1.94296 451.682 -1.94296 363.686 1.32025 311.921Z" fill="white"/>
</mask>
<g mask="url(#mask0_219_1209)">
<path d="M1.32025 311.921C4.58346 260.157 51.6619 150.734 201.602 149.611C351.542 148.488 336.657 17.9365 456.6 1.99815C576.544 -13.9402 608.733 78.1201 620.715 135.654C632.696 193.188 711.213 243.099 697.435 346.774C683.656 450.45 571.773 662.696 361.137 695.281C150.502 727.866 143.656 533.407 70.8563 492.545C-1.94296 451.682 -1.94296 363.686 1.32025 311.921Z" fill="#98C0EA"/>
<path fill-rule="evenodd" clip-rule="evenodd" d="M232.607 457.876V493.832H226.474L226.473 499.569L270.994 499.571C273.36 499.571 275.434 501.121 276.062 503.359L278.433 511.808L278.608 511.81L278.606 512.422L283.517 529.908C284.145 531.201 284.55 532.607 284.688 534.085L284.741 534.283L284.705 534.283C284.729 534.594 284.741 534.907 284.741 535.223C284.741 539.692 282.307 543.63 278.61 545.943L278.608 679.604H73.1372L73.1377 547.381C67.7774 545.612 63.937 540.836 63.937 535.223C63.937 534.907 63.9492 534.594 63.9732 534.283L63.937 534.283L63.9824 534.17C64.1928 531.74 65.1246 529.5 66.5776 527.638L76.432 502.854C77.2191 500.874 79.1637 499.571 81.3301 499.571L119.138 499.569V493.832H109.938V457.876H232.607ZM220.34 493.832H125.271V499.569H220.34V493.832Z" fill="#BADFFA"/>
<g opacity="0.8">
<g opacity="0.8">
<g opacity="0.8">
<g opacity="0.8">
<path opacity="0.8" d="M509.05 514.458H502.917V520.45H509.05V514.458Z" fill="#BADFFA"/>
<path opacity="0.8" d="M610.252 514.458H604.119V520.45H610.252V514.458Z" fill="#BADFFA"/>
<path opacity="0.8" d="M662.387 532.435H456.916V700.229H662.387V532.435Z" fill="#80B6DE"/>
<path opacity="0.8" d="M570.385 583.373H481.45V679.255H570.385V583.373Z" fill="#BADFFA"/>
<path opacity="0.8" d="M647.053 595.358H585.718V700.229H647.053V595.358Z" fill="#BADFFA"/>
<path opacity="0.8" fill-rule="evenodd" clip-rule="evenodd" d="M668.52 554.908H447.715L460.21 523.479C460.997 521.499 462.942 520.196 465.108 520.196H654.772C657.138 520.196 659.213 521.746 659.841 523.984L668.52 554.908Z" fill="#90CAF4"/>
<g opacity="0.8">
<mask id="mask1_219_1209" style="mask-type:alpha" maskUnits="userSpaceOnUse" x="493" y="478" width="124" height="37">
<g opacity="0.8">
<path opacity="0.8" d="M613.757 478.502H496.345C494.893 478.502 493.716 479.656 493.716 481.08V511.879C493.716 513.303 494.893 514.458 496.345 514.458H613.757C615.209 514.458 616.385 513.303 616.385 511.879V481.08C616.385 479.656 615.209 478.502 613.757 478.502Z" fill="white"/>
</g>
</mask>
<g mask="url(#mask1_219_1209)">
<path opacity="0.8" d="M613.757 478.502H496.345C494.893 478.502 493.716 479.656 493.716 481.08V511.879C493.716 513.303 494.893 514.458 496.345 514.458H613.757C615.209 514.458 616.385 513.303 616.385 511.879V481.08C616.385 479.656 615.209 478.502 613.757 478.502Z" fill="#90CAF4"/>
<path opacity="0.8" d="M616.385 478.502H493.716V487.491H616.385V478.502Z" fill="#80B6DE"/>
<path opacity="0.8" d="M616.385 490.487H493.716V502.472H616.385V490.487Z" fill="#BADFFA"/>
<path opacity="0.8" d="M616.385 505.468H493.716V514.457H616.385V505.468Z" fill="#80B6DE"/>
<path opacity="0.8" fill-rule="evenodd" clip-rule="evenodd" d="M512.117 502.879V489.827C512.117 488.64 512.943 487.607 514.117 487.323C530.213 483.44 544.214 481.498 556.12 481.498C568.039 481.498 582.342 483.444 599.031 487.335C600.216 487.611 601.052 488.649 601.052 489.844V502.865C601.052 504.076 600.193 505.123 598.988 505.383C580.194 509.435 565.905 511.461 556.12 511.461C546.344 511.461 532.359 509.439 514.164 505.394C512.967 505.127 512.117 504.084 512.117 502.879Z" fill="#96D3FF"/>
<path opacity="0.8" fill-rule="evenodd" clip-rule="evenodd" d="M524.384 500.576V492.872C524.384 491.643 525.269 490.584 526.499 490.344C536.219 488.442 546.131 487.491 556.234 487.491C566.361 487.491 576.501 488.446 586.652 490.358C587.891 490.591 588.786 491.653 588.786 492.89V500.576C588.786 501.843 587.847 502.923 586.571 503.122C576.576 504.686 566.58 505.469 556.585 505.469C546.589 505.469 536.594 504.686 526.599 503.122C525.323 502.922 524.384 501.843 524.384 500.576Z" fill="#BADFFA"/>
</g>
</g>
</g>
<path opacity="0.8" fill-rule="evenodd" clip-rule="evenodd" d="M461.516 542.957C469.137 542.957 475.316 548.729 475.316 555.848C475.316 562.968 469.137 568.74 461.516 568.74C453.894 568.74 447.715 562.968 447.715 555.848C447.715 548.729 453.894 542.957 461.516 542.957ZM489.116 542.957C496.738 542.957 502.916 548.729 502.916 555.848C502.916 562.968 496.738 568.74 489.116 568.74C481.494 568.74 475.316 562.968 475.316 555.848C475.316 548.729 481.494 542.957 489.116 542.957ZM516.717 542.957C524.338 542.957 530.517 548.729 530.517 555.848C530.517 562.968 524.338 568.74 516.717 568.74C509.095 568.74 502.916 562.968 502.916 555.848C502.916 548.729 509.095 542.957 516.717 542.957ZM544.317 542.957C551.939 542.957 558.118 548.729 558.118 555.848C558.118 562.968 551.939 568.74 544.317 568.74C536.696 568.74 530.517 562.968 530.517 555.848C530.517 548.729 536.696 542.957 544.317 542.957ZM571.918 542.957C579.54 542.957 585.718 548.729 585.718 555.848C585.718 562.968 579.54 568.74 571.918 568.74C564.296 568.74 558.118 562.968 558.118 555.848C558.118 548.729 564.296 542.957 571.918 542.957ZM599.518 542.957C607.14 542.957 613.319 548.729 613.319 555.848C613.319 562.968 607.14 568.74 599.518 568.74C591.897 568.74 585.718 562.968 585.718 555.848C585.718 548.729 591.897 542.957 599.518 542.957ZM627.119 542.957C634.741 542.957 640.919 548.729 640.919 555.848C640.919 562.968 634.741 568.74 627.119 568.74C619.497 568.74 613.319 562.968 613.319 555.848C613.319 548.729 619.497 542.957 627.119 542.957ZM654.72 542.957C662.341 542.957 668.52 548.729 668.52 555.848C668.52 562.968 662.341 568.74 654.72 568.74C647.098 568.74 640.919 562.968 640.919 555.848C640.919 548.729 647.098 542.957 654.72 542.957Z" fill="#90CAF4"/>
</g>
</g>
</g>
<path fill-rule="evenodd" clip-rule="evenodd" d="M51.2311 318.652V354.608H45.0976L45.0968 360.344L89.6176 360.346C91.9837 360.346 94.0583 361.897 94.6863 364.134L97.0568 372.583L97.232 372.586L97.2303 373.197L102.141 390.683C102.769 391.976 103.174 393.382 103.312 394.86L103.365 395.058L103.329 395.059C103.353 395.369 103.365 395.683 103.365 395.999C103.365 400.468 100.931 404.405 97.2337 406.718L97.232 540.38H-108.239L-108.238 408.157C-113.599 406.387 -117.439 401.612 -117.439 395.999C-117.439 395.683 -117.427 395.369 -117.403 395.059L-117.439 395.058L-117.394 394.946C-117.183 392.515 -116.251 390.276 -114.798 388.414L-104.944 363.629C-104.157 361.65 -102.212 360.346 -100.046 360.346L-62.2379 360.344V354.608H-71.438V318.652H51.2311ZM38.9642 354.608H-56.1044L-56.1053 360.344H38.9642V354.608Z" fill="#E6F1FA"/>
<path fill-rule="evenodd" clip-rule="evenodd" d="M419.239 524.91V560.866H413.105L413.105 566.603L457.625 566.605C459.991 566.605 462.066 568.155 462.694 570.392L465.065 578.842L465.24 578.844L465.238 579.455L470.149 596.942C470.776 598.234 471.182 599.641 471.32 601.119L471.373 601.316L471.337 601.317C471.361 601.627 471.373 601.941 471.373 602.257C471.373 606.726 468.939 610.664 465.241 612.976L465.24 746.638H259.769L259.77 614.415C254.409 612.645 250.569 607.87 250.569 602.257C250.569 601.941 250.581 601.627 250.605 601.317L250.569 601.316L250.614 601.204C250.825 598.774 251.756 596.534 253.209 594.672L263.064 569.888C263.851 567.908 265.796 566.605 267.962 566.605L305.77 566.603V560.866H296.57V524.91H419.239ZM406.972 560.866H311.903L311.903 566.603H406.972V560.866Z" fill="#A6CCE8"/>
<g opacity="0.8">
<g opacity="0.8">
<g opacity="0.8">
<path opacity="0.8" fill-rule="evenodd" clip-rule="evenodd" d="M616.385 298.026V333.982H610.252L610.251 339.718L654.772 339.72C657.138 339.72 659.213 341.27 659.841 343.508L662.211 351.957L662.386 351.959L662.385 352.571L667.296 370.057C667.923 371.35 668.328 372.756 668.467 374.234L668.52 374.432L668.484 374.432C668.508 374.743 668.52 375.056 668.52 375.373C668.52 379.841 666.085 383.779 662.388 386.092L662.386 519.754H456.916L456.916 387.53C451.556 385.761 447.715 380.986 447.715 375.373C447.715 375.056 447.728 374.743 447.751 374.432L447.715 374.432L447.761 374.319C447.971 371.889 448.903 369.65 450.356 367.787L460.21 343.003C460.997 341.023 462.942 339.72 465.108 339.72L502.916 339.718V333.982H493.716V298.026H616.385ZM604.118 333.982H509.05L509.049 339.718H604.118V333.982Z" fill="#BADFFA"/>
</g>
</g>
</g>
<path d="M228.969 573.055H223.187V578.727H228.969V573.055Z" fill="#73AEEC"/>
<path d="M324.389 573.055H318.606V578.727H324.389V573.055Z" fill="#73AEEC"/>
<path d="M373.544 590.071H179.815V748.89H373.544V590.071Z" fill="#73AEEC"/>
<path d="M286.799 638.284H202.946V729.038H286.799V638.284Z" fill="#BADFFA"/>
<path d="M359.086 649.628H301.257V748.89H359.086V649.628Z" fill="#BADFFA"/>
<path fill-rule="evenodd" clip-rule="evenodd" d="M379.327 611.342H171.14L182.718 582.105C183.582 579.924 185.723 578.487 188.109 578.487H365.73C368.335 578.487 370.619 580.195 371.307 582.659L379.327 611.342Z" fill="#CFE9FC"/>
<mask id="mask2_219_1209" style="mask-type:alpha" maskUnits="userSpaceOnUse" x="214" y="539" width="117" height="35">
<path d="M327.28 539.022H217.404C215.807 539.022 214.512 540.292 214.512 541.858V570.219C214.512 571.785 215.807 573.055 217.404 573.055H327.28C328.877 573.055 330.172 571.785 330.172 570.219V541.858C330.172 540.292 328.877 539.022 327.28 539.022Z" fill="white"/>
</mask>
<g mask="url(#mask2_219_1209)">
<path d="M327.28 539.022H217.404C215.807 539.022 214.512 540.292 214.512 541.858V570.219C214.512 571.785 215.807 573.055 217.404 573.055H327.28C328.877 573.055 330.172 571.785 330.172 570.219V541.858C330.172 540.292 328.877 539.022 327.28 539.022Z" fill="#90CAF4"/>
<path d="M330.172 539.022H214.512V547.53H330.172V539.022Z" fill="#73AEEC"/>
<path d="M330.172 550.366H214.512V561.71H330.172V550.366Z" fill="#BADFFA"/>
<path d="M330.172 564.547H214.512V573.055H330.172V564.547Z" fill="#73AEEC"/>
<path fill-rule="evenodd" clip-rule="evenodd" d="M231.861 561.782V550.05C231.861 548.744 232.769 547.607 234.062 547.296C249.106 543.671 262.202 541.858 273.35 541.858C284.511 541.858 297.892 543.675 313.49 547.309C314.794 547.613 315.714 548.755 315.714 550.069V561.766C315.714 563.098 314.769 564.25 313.443 564.536C295.883 568.325 282.519 570.219 273.35 570.219C264.19 570.219 251.111 568.329 234.113 564.548C232.795 564.255 231.861 563.107 231.861 561.782Z" fill="#96D3FF"/>
<path fill-rule="evenodd" clip-rule="evenodd" d="M243.427 559.579V552.947C243.427 551.593 244.403 550.427 245.758 550.165C254.815 548.408 264.048 547.53 273.457 547.53C282.893 547.53 292.34 548.413 301.798 550.18C303.162 550.435 304.148 551.604 304.148 552.966V559.579C304.148 560.974 303.114 562.162 301.709 562.38C292.402 563.824 283.095 564.546 273.788 564.546C264.481 564.546 255.174 563.824 245.867 562.38C244.462 562.162 243.427 560.974 243.427 559.579Z" fill="#BADFFA"/>
</g>
<path fill-rule="evenodd" clip-rule="evenodd" d="M184.151 598.58C191.337 598.58 197.163 604.293 197.163 611.342C197.163 618.39 191.337 624.104 184.151 624.104C176.965 624.104 171.14 618.39 171.14 611.342C171.14 604.293 176.965 598.58 184.151 598.58ZM210.175 598.58C217.361 598.58 223.186 604.293 223.186 611.342C223.186 618.39 217.361 624.104 210.175 624.104C202.989 624.104 197.163 618.39 197.163 611.342C197.163 604.293 202.989 598.58 210.175 598.58ZM236.198 598.58C243.384 598.58 249.21 604.293 249.21 611.342C249.21 618.39 243.384 624.104 236.198 624.104C229.012 624.104 223.186 618.39 223.186 611.342C223.186 604.293 229.012 598.58 236.198 598.58ZM262.221 598.58C269.408 598.58 275.233 604.293 275.233 611.342C275.233 618.39 269.408 624.104 262.221 624.104C255.035 624.104 249.21 618.39 249.21 611.342C249.21 604.293 255.035 598.58 262.221 598.58ZM288.245 598.58C295.431 598.58 301.257 604.293 301.257 611.342C301.257 618.39 295.431 624.104 288.245 624.104C281.059 624.104 275.233 618.39 275.233 611.342C275.233 604.293 281.059 598.58 288.245 598.58ZM314.268 598.58C321.454 598.58 327.28 604.293 327.28 611.342C327.28 618.39 321.454 624.104 314.268 624.104C307.082 624.104 301.257 618.39 301.257 611.342C301.257 604.293 307.082 598.58 314.268 598.58ZM340.292 598.58C347.478 598.58 353.303 604.293 353.303 611.342C353.303 618.39 347.478 624.104 340.292 624.104C333.105 624.104 327.28 618.39 327.28 611.342C327.28 604.293 333.105 598.58 340.292 598.58ZM366.315 598.58C373.501 598.58 379.327 604.293 379.327 611.342C379.327 618.39 373.501 624.104 366.315 624.104C359.129 624.104 353.303 618.39 353.303 611.342C353.303 604.293 359.129 598.58 366.315 598.58Z" fill="#CFE9FC"/>
<path d="M431.943 615.148H426.686V620.305H431.943V615.148Z" fill="#BADFFA"/>
<path d="M518.688 615.148H513.431V620.305H518.688V615.148Z" fill="#BADFFA"/>
<path d="M563.374 630.618H387.257V774.999H563.374V630.618Z" fill="#73AEEC"/>
<path d="M484.516 674.448H408.286V756.951H484.516V674.448Z" fill="#BADFFA"/>
<path d="M550.232 684.76H497.659V774.998H550.232V684.76Z" fill="#BADFFA"/>
<path fill-rule="evenodd" clip-rule="evenodd" d="M568.632 649.955H379.371L389.897 623.376C390.682 621.393 392.628 620.086 394.797 620.086H556.271C558.639 620.086 560.715 621.639 561.341 623.879L568.632 649.955Z" fill="#CFE9FC"/>
<mask id="mask3_219_1209" style="mask-type:alpha" maskUnits="userSpaceOnUse" x="418" y="584" width="106" height="32">
<path d="M521.317 584.209H421.429C419.978 584.209 418.801 585.364 418.801 586.788V612.57C418.801 613.994 419.978 615.148 421.429 615.148H521.317C522.769 615.148 523.946 613.994 523.946 612.57V586.788C523.946 585.364 522.769 584.209 521.317 584.209Z" fill="white"/>
</mask>
<g mask="url(#mask3_219_1209)">
<path d="M521.317 584.209H421.429C419.978 584.209 418.801 585.364 418.801 586.788V612.57C418.801 613.994 419.978 615.148 421.429 615.148H521.317C522.769 615.148 523.946 613.994 523.946 612.57V586.788C523.946 585.364 522.769 584.209 521.317 584.209Z" fill="#90CAF4"/>
<path d="M523.946 584.209H418.801V591.944H523.946V584.209Z" fill="#73AEEC"/>
<path d="M523.947 594.522H418.802V604.835H523.947V594.522Z" fill="#BADFFA"/>
<path d="M523.947 607.414H418.802V615.148H523.947V607.414Z" fill="#73AEEC"/>
<path fill-rule="evenodd" clip-rule="evenodd" d="M434.574 604.9V594.235C434.574 593.048 435.4 592.014 436.575 591.731C450.251 588.435 462.157 586.788 472.291 586.788C482.438 586.788 494.602 588.439 508.783 591.743C509.968 592.019 510.804 593.057 510.804 594.251V604.886C510.804 606.096 509.945 607.144 508.74 607.404C492.776 610.848 480.627 612.57 472.291 612.57C463.964 612.57 452.074 610.851 436.621 607.414C435.424 607.148 434.574 606.104 434.574 604.9Z" fill="#96D3FF"/>
<path fill-rule="evenodd" clip-rule="evenodd" d="M445.087 602.898V596.868C445.087 595.637 445.975 594.578 447.206 594.339C455.44 592.742 463.833 591.944 472.387 591.944C480.965 591.944 489.553 592.747 498.151 594.353C499.391 594.584 500.288 595.648 500.288 596.885V602.898C500.288 604.166 499.348 605.246 498.07 605.444C489.609 606.757 481.149 607.413 472.688 607.413C464.227 607.413 455.766 606.757 447.305 605.444C446.028 605.246 445.087 604.166 445.087 602.898Z" fill="#BADFFA"/>
</g>
<path fill-rule="evenodd" clip-rule="evenodd" d="M391.199 638.353C397.732 638.353 403.028 643.547 403.028 649.955C403.028 656.362 397.732 661.557 391.199 661.557C384.667 661.557 379.371 656.362 379.371 649.955C379.371 643.547 384.667 638.353 391.199 638.353ZM414.857 638.353C421.39 638.353 426.686 643.547 426.686 649.955C426.686 656.362 421.39 661.557 414.857 661.557C408.324 661.557 403.028 656.362 403.028 649.955C403.028 643.547 408.324 638.353 414.857 638.353ZM438.515 638.353C445.048 638.353 450.343 643.547 450.343 649.955C450.343 656.362 445.048 661.557 438.515 661.557C431.982 661.557 426.686 656.362 426.686 649.955C426.686 643.547 431.982 638.353 438.515 638.353ZM462.172 638.353C468.705 638.353 474.001 643.547 474.001 649.955C474.001 656.362 468.705 661.557 462.172 661.557C455.639 661.557 450.343 656.362 450.343 649.955C450.343 643.547 455.639 638.353 462.172 638.353ZM485.83 638.353C492.363 638.353 497.659 643.547 497.659 649.955C497.659 656.362 492.363 661.557 485.83 661.557C479.297 661.557 474.001 656.362 474.001 649.955C474.001 643.547 479.297 638.353 485.83 638.353ZM509.488 638.353C516.02 638.353 521.316 643.547 521.316 649.955C521.316 656.362 516.02 661.557 509.488 661.557C502.955 661.557 497.659 656.362 497.659 649.955C497.659 643.547 502.955 638.353 509.488 638.353ZM533.145 638.353C539.678 638.353 544.974 643.547 544.974 649.955C544.974 656.362 539.678 661.557 533.145 661.557C526.612 661.557 521.316 656.362 521.316 649.955C521.316 643.547 526.612 638.353 533.145 638.353ZM556.803 638.353C563.336 638.353 568.632 643.547 568.632 649.955C568.632 656.362 563.336 661.557 556.803 661.557C550.27 661.557 544.974 656.362 544.974 649.955C544.974 643.547 550.27 638.353 556.803 638.353Z" fill="#CFE9FC"/>
<path fill-rule="evenodd" clip-rule="evenodd" d="M98.1087 173.182C110.369 175.102 117.793 180.154 120.38 188.336C122.968 196.519 122.968 203.249 120.38 208.526C135.324 198.291 149.367 199.13 162.51 211.045C175.653 222.959 180.284 233.913 176.404 243.906L20.4941 249.04L45.0981 200.611L98.1087 173.182Z" fill="#DAEFFF"/>
<path fill-rule="evenodd" clip-rule="evenodd" d="M569.758 29.8936C535.913 23.0159 517.844 35.0465 515.553 65.9853C515.553 65.9853 474.296 61.1098 468.891 87.5319C465.288 105.147 474.551 118.898 496.68 128.788H623.883L599.518 51.7205L569.758 29.8936Z" fill="#DAEFFF"/>
<path fill-rule="evenodd" clip-rule="evenodd" d="M478.704 343.521C478.737 343.435 478.811 343.362 478.899 343.322C478.987 343.283 479.088 343.283 479.175 343.322C484.366 345.304 547.406 369.348 552.603 371.329C552.691 371.362 552.765 371.435 552.805 371.52C552.846 371.606 552.846 371.705 552.805 371.791C552.496 372.57 551.735 374.499 551.425 375.278C551.391 375.364 551.317 375.437 551.23 375.476C551.142 375.516 551.041 375.516 550.954 375.476C545.763 373.495 482.723 349.451 477.525 347.47C477.438 347.437 477.364 347.364 477.324 347.278C477.283 347.192 477.283 347.093 477.324 347.007C477.633 346.228 478.394 344.3 478.704 343.521Z" fill="#C2C2C2"/>
<path fill-rule="evenodd" clip-rule="evenodd" d="M483 332.697C483.034 332.611 483.108 332.538 483.195 332.499C483.283 332.459 483.384 332.459 483.471 332.499C488.662 334.48 551.702 358.524 556.9 360.505C556.987 360.538 557.061 360.611 557.102 360.697C557.142 360.783 557.142 360.882 557.102 360.968C556.792 361.747 556.031 363.675 555.721 364.454C555.688 364.54 555.614 364.613 555.526 364.652C555.439 364.692 555.338 364.692 555.25 364.652C550.059 362.671 487.02 338.627 481.822 336.646C481.734 336.613 481.66 336.54 481.62 336.454C481.58 336.369 481.58 336.269 481.62 336.184C481.93 335.404 482.69 333.476 483 332.697Z" fill="#C2C2C2"/>
<path fill-rule="evenodd" clip-rule="evenodd" d="M487.477 321.391C487.511 321.305 487.585 321.232 487.672 321.193C487.76 321.153 487.861 321.153 487.948 321.193C493.139 323.174 556.179 347.218 561.377 349.199C561.464 349.232 561.538 349.305 561.578 349.391C561.619 349.477 561.619 349.576 561.578 349.662C561.269 350.441 560.508 352.369 560.198 353.148C560.165 353.234 560.091 353.307 560.003 353.347C559.915 353.386 559.814 353.386 559.727 353.347C554.536 351.365 491.496 327.321 486.299 325.34C486.211 325.307 486.137 325.234 486.097 325.148C486.056 325.063 486.056 324.964 486.097 324.878C486.406 324.098 487.167 322.17 487.477 321.391Z" fill="#C2C2C2"/>
<path fill-rule="evenodd" clip-rule="evenodd" d="M521.35 325.096C521.788 323.986 523.06 323.438 524.191 323.868C531.53 326.668 556.462 336.177 563.801 338.977C564.932 339.406 565.491 340.654 565.053 341.764C565.04 341.803 565.019 341.843 565.006 341.883C564.568 342.992 563.296 343.54 562.165 343.111C554.826 340.311 529.894 330.802 522.555 328.002C521.424 327.572 520.865 326.324 521.303 325.215C521.317 325.175 521.337 325.136 521.35 325.096Z" fill="#216FB1"/>
<path fill-rule="evenodd" clip-rule="evenodd" d="M505.441 276.096C505.474 276.01 505.549 275.937 505.636 275.898C505.724 275.858 505.825 275.858 505.912 275.898C511.103 277.879 574.143 301.923 579.34 303.904C579.428 303.937 579.502 304.01 579.542 304.096C579.583 304.182 579.583 304.281 579.542 304.366C579.233 305.146 578.472 307.074 578.162 307.853C578.128 307.939 578.054 308.012 577.967 308.051C577.879 308.091 577.778 308.091 577.691 308.051C572.5 306.07 509.46 282.026 504.263 280.045C504.175 280.012 504.101 279.939 504.061 279.853C504.02 279.767 504.02 279.668 504.061 279.583C504.37 278.803 505.131 276.875 505.441 276.096Z" fill="#C2C2C2"/>
<path fill-rule="evenodd" clip-rule="evenodd" d="M509.729 265.272C509.762 265.186 509.836 265.114 509.924 265.074C510.011 265.034 510.112 265.034 510.2 265.074C515.391 267.055 578.43 291.099 583.628 293.08C583.716 293.113 583.79 293.186 583.83 293.272C583.871 293.358 583.871 293.457 583.83 293.543C583.52 294.322 582.76 296.25 582.45 297.029C582.416 297.115 582.342 297.188 582.255 297.228C582.167 297.267 582.066 297.267 581.979 297.228C576.788 295.246 513.748 271.202 508.55 269.221C508.463 269.188 508.389 269.115 508.348 269.03C508.308 268.944 508.308 268.845 508.348 268.759C508.658 267.98 509.419 266.051 509.729 265.272Z" fill="#C2C2C2"/>
<path fill-rule="evenodd" clip-rule="evenodd" d="M514.213 253.966C514.246 253.881 514.32 253.808 514.408 253.768C514.495 253.729 514.596 253.729 514.684 253.768C519.875 255.749 582.914 279.794 588.112 281.775C588.2 281.808 588.274 281.88 588.314 281.966C588.354 282.052 588.354 282.151 588.314 282.237C588.004 283.016 587.244 284.945 586.934 285.724C586.9 285.81 586.826 285.882 586.739 285.922C586.651 285.962 586.55 285.962 586.463 285.922C581.272 283.941 518.232 259.897 513.034 257.915C512.947 257.882 512.873 257.81 512.832 257.724C512.792 257.638 512.792 257.539 512.832 257.453C513.142 256.674 513.903 254.746 514.213 253.966Z" fill="#C2C2C2"/>
<path fill-rule="evenodd" clip-rule="evenodd" d="M548.086 257.671C548.524 256.562 549.796 256.014 550.927 256.443C558.266 259.243 583.198 268.752 590.537 271.552C591.668 271.981 592.226 273.23 591.789 274.339C591.775 274.379 591.755 274.418 591.742 274.458C591.304 275.567 590.032 276.115 588.9 275.686C581.562 272.886 556.63 263.377 549.291 260.577C548.16 260.147 547.601 258.899 548.039 257.79C548.052 257.75 548.073 257.711 548.086 257.671Z" fill="#216FB1"/>
<path fill-rule="evenodd" clip-rule="evenodd" d="M532.169 208.672C532.203 208.586 532.277 208.513 532.365 208.474C532.452 208.434 532.553 208.434 532.641 208.474C537.832 210.455 600.871 234.499 606.069 236.48C606.156 236.513 606.231 236.586 606.271 236.672C606.311 236.757 606.311 236.857 606.271 236.942C605.961 237.722 605.2 239.65 604.891 240.429C604.857 240.515 604.783 240.588 604.695 240.627C604.608 240.667 604.507 240.667 604.419 240.627C599.228 238.646 536.189 214.602 530.991 212.621C530.904 212.588 530.829 212.515 530.789 212.429C530.749 212.343 530.749 212.244 530.789 212.158C531.099 211.379 531.86 209.451 532.169 208.672Z" fill="#C2C2C2"/>
<path fill-rule="evenodd" clip-rule="evenodd" d="M536.459 197.848C536.492 197.762 536.566 197.689 536.654 197.65C536.741 197.61 536.842 197.61 536.93 197.65C542.121 199.631 605.16 223.675 610.358 225.656C610.446 225.689 610.52 225.762 610.56 225.848C610.601 225.934 610.601 226.033 610.56 226.119C610.25 226.898 609.49 228.826 609.18 229.605C609.146 229.691 609.072 229.764 608.985 229.804C608.897 229.843 608.796 229.843 608.709 229.804C603.518 227.822 540.478 203.778 535.28 201.797C535.193 201.764 535.119 201.691 535.078 201.605C535.038 201.52 535.038 201.421 535.078 201.335C535.388 200.555 536.149 198.627 536.459 197.848Z" fill="#C2C2C2"/>
<path fill-rule="evenodd" clip-rule="evenodd" d="M540.943 186.542C540.976 186.456 541.05 186.384 541.138 186.344C541.225 186.305 541.326 186.305 541.414 186.344C546.605 188.325 609.644 212.37 614.842 214.351C614.93 214.384 615.004 214.456 615.044 214.542C615.084 214.628 615.084 214.727 615.044 214.813C614.734 215.592 613.974 217.521 613.664 218.3C613.63 218.386 613.556 218.458 613.469 218.498C613.381 218.538 613.28 218.538 613.193 218.498C608.002 216.517 544.962 192.472 539.764 190.491C539.677 190.458 539.603 190.386 539.562 190.3C539.522 190.214 539.522 190.115 539.562 190.029C539.872 189.25 540.633 187.322 540.943 186.542Z" fill="#C2C2C2"/>
<path fill-rule="evenodd" clip-rule="evenodd" d="M574.816 190.247C575.253 189.138 576.526 188.589 577.657 189.019C584.996 191.819 609.927 201.328 617.266 204.128C618.397 204.557 618.956 205.805 618.519 206.915C618.505 206.955 618.485 206.994 618.471 207.034C618.034 208.143 616.761 208.691 615.63 208.262C608.291 205.462 583.36 195.953 576.021 193.153C574.89 192.723 574.331 191.475 574.769 190.366C574.782 190.326 574.802 190.287 574.816 190.247Z" fill="#216FB1"/>
<path fill-rule="evenodd" clip-rule="evenodd" d="M514.456 293.92L502.195 277.318C501.353 276.182 499.731 275.924 498.566 276.75C497.408 277.575 497.145 279.167 497.987 280.309L511.931 299.189C512.362 299.77 513.021 300.147 513.755 300.226C514.482 300.305 515.216 300.074 515.762 299.592L526.393 290.294C527.463 289.356 527.558 287.745 526.602 286.695C525.645 285.645 524.003 285.553 522.932 286.49L514.442 293.913L514.456 293.92Z" fill="#45BB8E"/>
<path fill-rule="evenodd" clip-rule="evenodd" d="M492.534 274.148C493.086 269.855 497.086 266.811 501.462 267.353C508.504 268.224 520.031 269.651 527.074 270.522C531.45 271.064 534.554 274.987 534.002 279.279C533.14 285.982 531.746 296.805 530.884 303.508C530.332 307.801 526.333 310.845 521.957 310.304C514.914 309.432 503.387 308.005 496.345 307.134C491.969 306.592 488.865 302.67 489.417 298.377L492.534 274.148ZM496.217 274.604C496.513 272.305 498.654 270.674 500.997 270.965C508.04 271.837 519.566 273.263 526.609 274.135C528.952 274.425 530.615 276.525 530.319 278.823C529.457 285.526 528.063 296.35 527.202 303.053C526.905 305.351 524.764 306.982 522.421 306.691C515.379 305.82 503.852 304.393 496.81 303.521C494.466 303.231 492.803 301.131 493.1 298.833L496.217 274.604Z" fill="#C2C2C2"/>
<path fill-rule="evenodd" clip-rule="evenodd" d="M523.686 222.143L511.426 205.541C510.584 204.405 508.961 204.148 507.797 204.973C506.639 205.799 506.376 207.39 507.218 208.533L521.161 227.413C521.592 227.994 522.252 228.37 522.986 228.45C523.713 228.529 524.447 228.298 524.992 227.816L535.624 218.518C536.694 217.58 536.788 215.969 535.832 214.919C534.876 213.869 533.233 213.776 532.163 214.714L523.673 222.137L523.686 222.143Z" fill="#45BB8E"/>
<path fill-rule="evenodd" clip-rule="evenodd" d="M501.771 202.378C502.323 198.085 506.322 195.041 510.698 195.583C517.741 196.454 529.267 197.881 536.31 198.752C540.686 199.294 543.79 203.217 543.238 207.509C542.376 214.212 540.983 225.035 540.121 231.738C539.569 236.031 535.569 239.075 531.193 238.534C524.15 237.662 512.624 236.235 505.581 235.364C501.205 234.822 498.101 230.9 498.653 226.607L501.771 202.378ZM505.447 202.834C505.743 200.535 507.884 198.904 510.227 199.195C517.269 200.067 528.796 201.493 535.839 202.365C538.182 202.655 539.845 204.755 539.548 207.053C538.687 213.756 537.293 224.58 536.431 231.283C536.135 233.581 533.994 235.212 531.651 234.921C524.608 234.05 513.082 232.623 506.039 231.751C503.696 231.461 502.033 229.361 502.329 227.063L505.447 202.834Z" fill="#C2C2C2"/>
<path fill-rule="evenodd" clip-rule="evenodd" d="M462.303 135.337L616.868 158.021C624.113 159.084 629.109 165.707 628.025 172.813L598.178 368.496C597.094 375.601 590.341 380.501 583.096 379.438L441.653 358.682C434.408 357.619 429.413 350.996 430.497 343.89L462.303 135.337Z" fill="#DCE9F5"/>
<path fill-rule="evenodd" clip-rule="evenodd" d="M449.201 335.88C449.214 335.787 449.268 335.702 449.342 335.642C449.423 335.583 449.517 335.563 449.612 335.576C455.126 336.382 522.016 346.202 527.531 347.007C527.625 347.02 527.712 347.073 527.773 347.146C527.834 347.225 527.854 347.318 527.84 347.41C527.712 348.236 527.403 350.283 527.275 351.108C527.261 351.201 527.207 351.287 527.133 351.346C527.053 351.405 526.958 351.425 526.864 351.412C521.35 350.606 454.459 340.787 448.945 339.981C448.851 339.968 448.763 339.915 448.703 339.842C448.642 339.763 448.622 339.671 448.635 339.578C448.763 338.753 449.073 336.705 449.201 335.88Z" fill="#B8D7F1"/>
<path fill-rule="evenodd" clip-rule="evenodd" d="M450.951 324.389C450.964 324.297 451.018 324.211 451.092 324.152C451.173 324.092 451.267 324.072 451.362 324.086C456.876 324.891 523.766 334.711 529.281 335.517C529.375 335.53 529.462 335.583 529.523 335.655C529.584 335.735 529.604 335.827 529.59 335.92C529.462 336.745 529.153 338.792 529.025 339.618C529.011 339.71 528.958 339.796 528.883 339.855C528.803 339.915 528.708 339.935 528.614 339.922C523.1 339.116 456.209 329.296 450.695 328.49C450.601 328.477 450.513 328.424 450.453 328.352C450.392 328.272 450.372 328.18 450.385 328.088C450.513 327.262 450.823 325.215 450.951 324.389Z" fill="#B8D7F1"/>
<path fill-rule="evenodd" clip-rule="evenodd" d="M452.782 312.397C452.795 312.304 452.849 312.218 452.923 312.159C453.004 312.099 453.098 312.08 453.193 312.093C458.707 312.898 525.598 322.718 531.112 323.524C531.206 323.537 531.294 323.59 531.354 323.663C531.415 323.742 531.435 323.834 531.421 323.927C531.294 324.752 530.984 326.799 530.856 327.625C530.842 327.717 530.789 327.803 530.714 327.863C530.634 327.922 530.539 327.942 530.445 327.929C524.931 327.123 458.04 317.303 452.526 316.497C452.432 316.484 452.344 316.431 452.284 316.359C452.223 316.28 452.203 316.187 452.216 316.095C452.344 315.269 452.654 313.222 452.782 312.397Z" fill="#B8D7F1"/>
<path fill-rule="evenodd" clip-rule="evenodd" d="M486.656 308.685C486.838 307.51 487.955 306.698 489.154 306.876C496.944 308.018 523.404 311.901 531.187 313.044C532.385 313.222 533.214 314.318 533.032 315.494L533.012 315.626C532.83 316.801 531.712 317.614 530.514 317.435C522.724 316.293 496.264 312.41 488.481 311.267C487.282 311.089 486.454 309.993 486.636 308.817L486.656 308.685Z" fill="#0686BF"/>
<path fill-rule="evenodd" clip-rule="evenodd" d="M559.99 340.423L576.701 328.114C577.845 327.268 579.475 327.499 580.336 328.622C581.198 329.745 580.963 331.343 579.818 332.188L560.811 346.195C560.225 346.631 559.478 346.796 558.758 346.657C558.037 346.518 557.411 346.089 557.027 345.475L549.662 333.516C548.921 332.314 549.318 330.742 550.544 330.016C551.769 329.289 553.371 329.679 554.112 330.881L559.99 340.43V340.423Z" fill="#3570B7"/>
<path fill-rule="evenodd" clip-rule="evenodd" d="M545.595 321.549C546.249 317.27 550.315 314.318 554.678 314.959C561.7 315.989 573.187 317.673 580.209 318.703C584.572 319.344 587.581 323.332 586.928 327.612C585.912 334.295 584.262 345.079 583.245 351.768C582.592 356.048 578.526 358.999 574.163 358.359C567.14 357.329 555.654 355.645 548.632 354.614C544.269 353.974 541.259 349.985 541.913 345.706L545.595 321.549ZM549.265 322.084C549.615 319.793 551.79 318.215 554.126 318.558C561.148 319.588 572.634 321.272 579.657 322.302C581.993 322.646 583.602 324.779 583.252 327.07C582.235 333.753 580.586 344.537 579.569 351.227C579.219 353.518 577.044 355.097 574.708 354.753C567.686 353.723 556.2 352.039 549.177 351.009C546.841 350.665 545.232 348.532 545.582 346.241L549.265 322.084Z" fill="#B8D7F1"/>
<path fill-rule="evenodd" clip-rule="evenodd" d="M460.115 264.328C460.128 264.236 460.182 264.15 460.256 264.09C460.337 264.031 460.431 264.011 460.526 264.024C466.04 264.83 532.931 274.65 538.445 275.456C538.539 275.469 538.627 275.522 538.687 275.594C538.748 275.673 538.768 275.766 538.754 275.858C538.627 276.684 538.317 278.731 538.189 279.556C538.175 279.649 538.122 279.735 538.048 279.794C537.967 279.854 537.872 279.873 537.778 279.86C532.264 279.055 465.373 269.235 459.859 268.429C459.765 268.416 459.677 268.363 459.617 268.29C459.556 268.211 459.536 268.119 459.549 268.026C459.677 267.201 459.987 265.154 460.115 264.328Z" fill="#B8D7F1"/>
<path fill-rule="evenodd" clip-rule="evenodd" d="M461.865 252.844C461.878 252.752 461.932 252.666 462.006 252.606C462.087 252.547 462.181 252.527 462.276 252.54C467.79 253.346 534.681 263.166 540.195 263.971C540.289 263.985 540.377 264.037 540.437 264.11C540.498 264.183 540.518 264.282 540.504 264.374C540.377 265.2 540.067 267.247 539.939 268.072C539.925 268.165 539.872 268.251 539.797 268.31C539.717 268.37 539.622 268.389 539.528 268.376C534.014 267.57 467.123 257.751 461.609 256.945C461.515 256.932 461.427 256.879 461.367 256.806C461.306 256.727 461.286 256.635 461.299 256.542C461.427 255.717 461.737 253.67 461.865 252.844Z" fill="#B8D7F1"/>
<path fill-rule="evenodd" clip-rule="evenodd" d="M463.696 240.852C463.709 240.759 463.763 240.673 463.837 240.614C463.918 240.554 464.012 240.535 464.107 240.548C469.621 241.354 536.512 251.173 542.026 251.979C542.12 251.992 542.208 252.045 542.268 252.118C542.329 252.197 542.349 252.289 542.336 252.382C542.208 253.207 541.898 255.254 541.77 256.08C541.756 256.172 541.703 256.258 541.629 256.318C541.548 256.377 541.454 256.397 541.359 256.384C535.845 255.578 468.954 245.758 463.44 244.953C463.346 244.939 463.258 244.887 463.198 244.814C463.137 244.735 463.117 244.642 463.13 244.55C463.258 243.724 463.568 241.677 463.696 240.852Z" fill="#B8D7F1"/>
<path fill-rule="evenodd" clip-rule="evenodd" d="M497.57 237.134C497.752 235.958 498.87 235.146 500.068 235.324C507.858 236.467 534.318 240.35 542.101 241.492C543.3 241.67 544.128 242.767 543.946 243.942L543.926 244.074C543.744 245.25 542.626 246.062 541.428 245.884C533.638 244.741 507.178 240.858 499.395 239.716C498.196 239.537 497.368 238.441 497.55 237.266L497.57 237.134Z" fill="#0686BF"/>
<path fill-rule="evenodd" clip-rule="evenodd" d="M570.614 270.172L587.325 257.863C588.469 257.017 590.099 257.249 590.96 258.371C591.822 259.494 591.587 261.092 590.442 261.937L571.435 275.944C570.849 276.38 570.102 276.545 569.382 276.406C568.661 276.267 568.035 275.838 567.651 275.224L560.286 263.265C559.545 262.063 559.942 260.491 561.168 259.765C562.393 259.038 563.995 259.428 564.736 260.63L570.614 270.179V270.172Z" fill="#3570B7"/>
<path fill-rule="evenodd" clip-rule="evenodd" d="M556.509 249.998C557.163 245.718 561.229 242.767 565.592 243.407C572.614 244.437 584.101 246.121 591.123 247.152C595.486 247.792 598.495 251.781 597.842 256.06C596.826 262.743 595.176 273.527 594.159 280.217C593.506 284.496 589.44 287.448 585.077 286.807C578.054 285.777 566.568 284.093 559.546 283.063C555.183 282.422 552.174 278.434 552.827 274.154L556.509 249.998ZM560.179 250.539C560.529 248.248 562.704 246.669 565.04 247.013C572.062 248.043 583.549 249.727 590.571 250.757C592.907 251.101 594.516 253.234 594.166 255.525C593.15 262.208 591.5 272.992 590.483 279.682C590.133 281.973 587.958 283.551 585.622 283.208C578.6 282.178 567.114 280.494 560.091 279.464C557.755 279.12 556.146 276.987 556.496 274.696L560.179 250.539Z" fill="#B8D7F1"/>
<path fill-rule="evenodd" clip-rule="evenodd" d="M471.029 192.783C471.043 192.69 471.096 192.604 471.17 192.545C471.251 192.486 471.345 192.466 471.44 192.479C476.954 193.285 543.845 203.104 549.359 203.91C549.453 203.923 549.541 203.976 549.601 204.049C549.662 204.128 549.682 204.22 549.669 204.313C549.541 205.138 549.231 207.186 549.103 208.011C549.089 208.104 549.036 208.189 548.962 208.249C548.881 208.308 548.787 208.328 548.692 208.315C543.178 207.509 476.287 197.689 470.773 196.884C470.679 196.871 470.591 196.818 470.531 196.745C470.47 196.666 470.45 196.573 470.463 196.481C470.591 195.655 470.901 193.608 471.029 192.783Z" fill="#B8D7F1"/>
<path fill-rule="evenodd" clip-rule="evenodd" d="M472.779 181.299C472.792 181.206 472.846 181.12 472.92 181.061C473.001 181.001 473.095 180.982 473.19 180.995C478.704 181.801 545.595 191.62 551.109 192.426C551.203 192.439 551.291 192.492 551.351 192.565C551.412 192.644 551.432 192.736 551.419 192.829L550.853 196.527C550.84 196.619 550.786 196.705 550.712 196.765C550.631 196.824 550.537 196.844 550.442 196.831C544.928 196.025 478.037 186.205 472.523 185.4C472.429 185.386 472.341 185.334 472.281 185.261C472.22 185.182 472.2 185.089 472.213 184.997L472.779 181.299Z" fill="#B8D7F1"/>
<path fill-rule="evenodd" clip-rule="evenodd" d="M474.61 169.306C474.624 169.214 474.677 169.128 474.751 169.068C474.826 169.009 474.927 168.989 475.021 169.002C480.535 169.808 547.426 179.628 552.94 180.434C553.034 180.447 553.122 180.5 553.182 180.572C553.243 180.651 553.263 180.744 553.25 180.836C553.122 181.662 552.812 183.709 552.684 184.534C552.671 184.627 552.617 184.713 552.543 184.772C552.462 184.832 552.368 184.851 552.273 184.838C546.759 184.033 479.868 174.213 474.354 173.407C474.26 173.394 474.172 173.341 474.112 173.268C474.051 173.189 474.031 173.097 474.045 173.004C474.172 172.179 474.482 170.132 474.61 169.306Z" fill="#B8D7F1"/>
<path fill-rule="evenodd" clip-rule="evenodd" d="M508.484 165.589C508.666 164.413 509.784 163.601 510.982 163.779C518.772 164.922 545.232 168.805 553.015 169.947C554.214 170.126 555.042 171.222 554.86 172.397L554.84 172.529C554.658 173.705 553.54 174.517 552.342 174.339C544.552 173.196 518.092 169.313 510.309 168.171C509.11 167.993 508.282 166.896 508.464 165.721L508.484 165.589Z" fill="#0686BF"/>
<path fill-rule="evenodd" clip-rule="evenodd" d="M582.323 197.465L599.034 185.156C600.178 184.31 601.808 184.541 602.669 185.664C603.531 186.787 603.296 188.385 602.151 189.23L583.144 203.237C582.558 203.673 581.811 203.838 581.091 203.699C580.37 203.56 579.744 203.131 579.36 202.517L571.995 190.558C571.254 189.356 571.651 187.784 572.877 187.058C574.102 186.331 575.704 186.721 576.445 187.923L582.323 197.472V197.465Z" fill="#3570B7"/>
<path fill-rule="evenodd" clip-rule="evenodd" d="M567.422 178.452C568.075 174.173 572.142 171.221 576.505 171.862C583.527 172.892 595.013 174.576 602.036 175.606C606.398 176.247 609.408 180.235 608.755 184.515C607.738 191.198 606.089 201.982 605.072 208.671C604.419 212.95 600.352 215.902 595.989 215.262C588.967 214.231 577.481 212.548 570.459 211.517C566.096 210.877 563.086 206.888 563.739 202.609L567.422 178.452ZM571.091 178.994C571.442 176.702 573.616 175.124 575.953 175.467C582.975 176.498 594.461 178.182 601.483 179.212C603.82 179.555 605.429 181.688 605.079 183.98C604.062 190.663 602.413 201.447 601.396 208.136C601.046 210.428 598.871 212.006 596.535 211.663C589.512 210.632 578.026 208.948 571.004 207.918C568.668 207.575 567.058 205.442 567.409 203.15L571.091 178.994Z" fill="#B8D7F1"/>
<path fill-rule="evenodd" clip-rule="evenodd" d="M438.158 350.507C438.172 350.415 438.219 350.329 438.299 350.269C438.374 350.21 438.475 350.19 438.569 350.197C444.09 350.936 511.102 359.931 516.623 360.67C516.717 360.684 516.804 360.73 516.865 360.809C516.926 360.882 516.946 360.981 516.939 361.073C516.825 361.899 516.535 363.952 516.421 364.778C516.407 364.87 516.36 364.956 516.279 365.016C516.205 365.075 516.104 365.095 516.01 365.088C510.489 364.349 443.477 355.354 437.956 354.615C437.862 354.601 437.774 354.555 437.714 354.476C437.653 354.403 437.633 354.304 437.64 354.212C437.754 353.386 438.044 351.333 438.158 350.507Z" fill="#C2C2C2"/>
<path fill-rule="evenodd" clip-rule="evenodd" d="M439.76 339.004C439.774 338.911 439.821 338.825 439.902 338.766C439.976 338.707 440.077 338.687 440.171 338.693C445.692 339.433 512.704 348.427 518.225 349.167C518.319 349.18 518.407 349.226 518.467 349.306C518.528 349.378 518.548 349.477 518.541 349.57C518.427 350.395 518.137 352.449 518.023 353.274C518.009 353.367 517.962 353.453 517.881 353.512C517.807 353.572 517.706 353.591 517.612 353.585C512.091 352.845 445.079 343.851 439.558 343.111C439.464 343.098 439.377 343.052 439.316 342.973C439.255 342.9 439.235 342.801 439.242 342.708C439.356 341.883 439.646 339.829 439.76 339.004Z" fill="#C2C2C2"/>
<path fill-rule="evenodd" clip-rule="evenodd" d="M441.438 326.984C441.451 326.892 441.498 326.806 441.579 326.747C441.653 326.687 441.754 326.667 441.849 326.674C447.37 327.414 514.381 336.408 519.902 337.148C519.997 337.161 520.084 337.207 520.145 337.286C520.205 337.359 520.226 337.458 520.219 337.55C520.104 338.376 519.815 340.43 519.7 341.255C519.687 341.348 519.64 341.433 519.559 341.493C519.485 341.552 519.384 341.572 519.29 341.566C513.769 340.826 446.757 331.832 441.236 331.092C441.142 331.079 441.054 331.033 440.994 330.953C440.933 330.881 440.913 330.782 440.919 330.689C441.034 329.864 441.323 327.81 441.438 326.984Z" fill="#C2C2C2"/>
<path fill-rule="evenodd" clip-rule="evenodd" d="M475.256 322.85C475.418 321.668 476.528 320.849 477.734 321.008C485.537 322.051 512.044 325.611 519.841 326.654C521.046 326.813 521.881 327.902 521.719 329.084C521.719 329.131 521.706 329.17 521.699 329.216C521.537 330.398 520.427 331.217 519.221 331.059C511.418 330.015 484.911 326.456 477.114 325.413C475.909 325.254 475.067 324.164 475.236 322.982C475.236 322.936 475.249 322.897 475.256 322.85Z" fill="#216FB1"/>
<path fill-rule="evenodd" clip-rule="evenodd" d="M448.15 278.83C448.163 278.738 448.21 278.652 448.291 278.592C448.365 278.533 448.466 278.513 448.56 278.52C454.081 279.259 521.093 288.254 526.614 288.993C526.708 289.007 526.796 289.053 526.856 289.132C526.917 289.205 526.937 289.304 526.93 289.396C526.816 290.222 526.526 292.275 526.412 293.101C526.399 293.193 526.351 293.279 526.271 293.339C526.197 293.398 526.096 293.418 526.001 293.411C520.48 292.672 453.468 283.677 447.948 282.938C447.853 282.924 447.766 282.878 447.705 282.799C447.645 282.726 447.624 282.627 447.631 282.535C447.746 281.709 448.035 279.656 448.15 278.83Z" fill="#C2C2C2"/>
<path fill-rule="evenodd" clip-rule="evenodd" d="M449.752 267.326C449.765 267.234 449.812 267.148 449.893 267.089C449.967 267.029 450.068 267.009 450.163 267.016C455.683 267.755 522.695 276.75 528.216 277.489C528.311 277.503 528.398 277.549 528.459 277.628C528.519 277.701 528.539 277.8 528.533 277.892C528.418 278.718 528.129 280.771 528.014 281.597C528.001 281.689 527.954 281.775 527.873 281.835C527.799 281.894 527.698 281.914 527.604 281.907C522.083 281.168 455.071 272.173 449.55 271.434C449.456 271.421 449.368 271.374 449.307 271.295C449.247 271.222 449.227 271.123 449.233 271.031C449.348 270.205 449.637 268.152 449.752 267.326Z" fill="#C2C2C2"/>
<path fill-rule="evenodd" clip-rule="evenodd" d="M451.429 255.307C451.443 255.215 451.49 255.129 451.571 255.07C451.645 255.01 451.746 254.99 451.84 254.997C457.361 255.737 524.373 264.731 529.894 265.471C529.988 265.484 530.076 265.53 530.136 265.609C530.197 265.682 530.217 265.781 530.21 265.873C530.096 266.699 529.806 268.753 529.692 269.578C529.678 269.671 529.631 269.756 529.55 269.816C529.476 269.875 529.375 269.895 529.281 269.889C523.76 269.149 456.748 260.155 451.227 259.415C451.133 259.402 451.046 259.356 450.985 259.276C450.924 259.204 450.904 259.105 450.911 259.012C451.025 258.187 451.315 256.133 451.429 255.307Z" fill="#C2C2C2"/>
<path fill-rule="evenodd" clip-rule="evenodd" d="M485.254 251.18C485.416 249.998 486.527 249.179 487.732 249.337C495.535 250.381 522.043 253.94 529.839 254.984C531.044 255.142 531.879 256.232 531.718 257.414C531.718 257.46 531.704 257.5 531.697 257.546C531.536 258.728 530.425 259.547 529.22 259.388C521.416 258.345 494.909 254.786 487.113 253.742C485.907 253.584 485.073 252.494 485.234 251.312C485.234 251.266 485.248 251.226 485.254 251.18Z" fill="#216FB1"/>
<path fill-rule="evenodd" clip-rule="evenodd" d="M458.148 207.159C458.162 207.067 458.209 206.981 458.289 206.922C458.364 206.862 458.465 206.843 458.559 206.849C464.08 207.589 531.092 216.583 536.613 217.323C536.707 217.336 536.794 217.382 536.855 217.461C536.915 217.534 536.936 217.633 536.929 217.726C536.815 218.551 536.525 220.605 536.411 221.43C536.397 221.523 536.35 221.609 536.269 221.668C536.195 221.727 536.094 221.747 536 221.741C530.479 221.001 463.467 212.007 457.946 211.267C457.852 211.254 457.764 211.208 457.704 211.128C457.643 211.056 457.623 210.957 457.63 210.864C457.744 210.039 458.034 207.985 458.148 207.159Z" fill="#C2C2C2"/>
<path fill-rule="evenodd" clip-rule="evenodd" d="M459.75 195.649C459.764 195.557 459.811 195.471 459.892 195.412C459.966 195.352 460.067 195.332 460.161 195.339C465.682 196.078 532.694 205.073 538.215 205.812C538.309 205.826 538.396 205.872 538.457 205.951C538.518 206.024 538.538 206.123 538.531 206.215C538.417 207.041 538.127 209.094 538.013 209.92C537.999 210.012 537.952 210.098 537.871 210.158C537.797 210.217 537.696 210.237 537.602 210.23C532.081 209.491 465.069 200.496 459.548 199.757C459.454 199.744 459.366 199.697 459.306 199.618C459.245 199.545 459.225 199.446 459.232 199.354C459.346 198.528 459.636 196.475 459.75 195.649Z" fill="#C2C2C2"/>
<path fill-rule="evenodd" clip-rule="evenodd" d="M461.428 183.637C461.441 183.545 461.488 183.459 461.569 183.399C461.643 183.34 461.744 183.32 461.839 183.327C467.359 184.066 534.371 193.061 539.892 193.8C539.987 193.813 540.074 193.86 540.135 193.939C540.195 194.012 540.216 194.111 540.209 194.203C540.094 195.029 539.805 197.082 539.69 197.908C539.677 198 539.63 198.086 539.549 198.145C539.475 198.205 539.374 198.225 539.28 198.218C533.759 197.479 466.747 188.484 461.226 187.745C461.132 187.731 461.044 187.685 460.983 187.606C460.923 187.533 460.903 187.434 460.909 187.342C461.024 186.516 461.313 184.463 461.428 183.637Z" fill="#C2C2C2"/>
<path fill-rule="evenodd" clip-rule="evenodd" d="M495.246 179.503C495.407 178.321 496.518 177.495 497.723 177.66C505.527 178.704 532.034 182.263 539.831 183.307C541.036 183.465 541.877 184.555 541.709 185.737C541.709 185.783 541.696 185.823 541.689 185.869C541.527 187.051 540.416 187.876 539.211 187.711C531.408 186.668 504.901 183.109 497.104 182.065C495.899 181.907 495.057 180.817 495.226 179.635C495.226 179.589 495.239 179.549 495.246 179.503Z" fill="#216FB1"/>
<path fill-rule="evenodd" clip-rule="evenodd" d="M461.151 294.105L445.288 280.759C444.198 279.841 442.562 279.966 441.626 281.036C440.69 282.106 440.818 283.711 441.908 284.628L459.952 299.81C460.511 300.279 461.245 300.497 461.972 300.405C462.699 300.312 463.359 299.923 463.777 299.335L471.91 287.864C472.731 286.709 472.435 285.124 471.264 284.318C470.085 283.512 468.469 283.803 467.648 284.952L461.158 294.105H461.151Z" fill="#45BB8E"/>
<path fill-rule="evenodd" clip-rule="evenodd" d="M435.143 279.886C434.658 275.587 437.822 271.718 442.212 271.242C449.268 270.483 460.815 269.235 467.871 268.475C472.254 268 476.206 271.103 476.684 275.409C477.438 282.125 478.65 292.968 479.404 299.684C479.889 303.984 476.725 307.86 472.335 308.329C465.279 309.088 453.732 310.336 446.676 311.096C442.293 311.571 438.341 308.467 437.863 304.162L435.143 279.886ZM438.832 279.49C438.577 277.185 440.266 275.112 442.616 274.861C449.672 274.101 461.219 272.853 468.275 272.094C470.625 271.843 472.739 273.501 472.995 275.805C473.749 282.521 474.961 293.365 475.715 300.081C475.971 302.385 474.281 304.459 471.931 304.71C464.875 305.469 453.328 306.717 446.272 307.477C443.922 307.728 441.808 306.07 441.552 303.766L438.832 279.49Z" fill="#C2C2C2"/>
<path fill-rule="evenodd" clip-rule="evenodd" d="M453.092 222.196L437.229 208.85C436.138 207.932 434.502 208.058 433.566 209.127C432.63 210.197 432.758 211.802 433.849 212.72L451.893 227.902C452.452 228.371 453.186 228.589 453.913 228.496C454.64 228.404 455.3 228.014 455.717 227.426L463.851 215.956C464.672 214.8 464.376 213.215 463.204 212.409C462.026 211.604 460.41 211.894 459.589 213.043L453.098 222.196H453.092Z" fill="#45BB8E"/>
<path fill-rule="evenodd" clip-rule="evenodd" d="M427.083 207.978C426.599 203.679 429.763 199.81 434.153 199.334C441.209 198.575 452.756 197.327 459.812 196.567C464.195 196.092 468.147 199.195 468.625 203.501C469.379 210.217 470.591 221.06 471.345 227.776C471.83 232.076 468.665 235.952 464.276 236.421C457.22 237.18 445.673 238.428 438.617 239.188C434.234 239.663 430.282 236.559 429.804 232.254L427.083 207.978ZM430.773 207.576C430.517 205.271 432.207 203.197 434.557 202.946C441.613 202.187 453.16 200.939 460.216 200.179C462.566 199.928 464.68 201.586 464.935 203.891C465.69 210.607 466.901 221.45 467.656 228.166C467.911 230.471 466.221 232.544 463.872 232.795C456.816 233.555 445.269 234.803 438.213 235.562C435.863 235.813 433.749 234.156 433.493 231.851L430.773 207.576Z" fill="#C2C2C2"/>
<path fill-rule="evenodd" clip-rule="evenodd" d="M372.797 151.787L528.5 138.553C535.799 137.932 542.229 143.235 542.862 150.393L560.279 347.516C560.912 354.674 555.506 360.981 548.207 361.601L405.72 373.713C398.422 374.333 391.992 369.031 391.359 361.872L372.797 151.787Z" fill="#E8F2FB"/>
<path fill-rule="evenodd" clip-rule="evenodd" d="M407.653 349.814C407.646 349.721 407.673 349.622 407.733 349.549C407.794 349.477 407.882 349.431 407.983 349.424C413.537 348.955 480.919 343.223 486.474 342.754C486.568 342.748 486.669 342.774 486.743 342.833C486.817 342.893 486.864 342.979 486.871 343.078L487.201 346.802C487.208 346.895 487.181 346.994 487.12 347.066C487.06 347.139 486.972 347.185 486.871 347.192C481.317 347.661 413.934 353.393 408.38 353.862C408.286 353.868 408.185 353.842 408.11 353.776C408.036 353.716 407.989 353.631 407.983 353.532C407.908 352.699 407.727 350.639 407.653 349.807V349.814Z" fill="#B8D7F1"/>
<path fill-rule="evenodd" clip-rule="evenodd" d="M406.629 338.244C406.622 338.152 406.649 338.053 406.71 337.98C406.77 337.907 406.858 337.861 406.959 337.855C412.513 337.386 479.896 331.654 485.45 331.185C485.544 331.178 485.645 331.205 485.72 331.271C485.794 331.33 485.841 331.416 485.847 331.515C485.922 332.347 486.103 334.407 486.177 335.24C486.184 335.332 486.157 335.431 486.097 335.504C486.036 335.576 485.948 335.623 485.847 335.629C480.293 336.098 412.911 341.83 407.356 342.299C407.262 342.306 407.161 342.279 407.087 342.22C407.013 342.16 406.966 342.074 406.959 341.975C406.885 341.143 406.703 339.083 406.629 338.251V338.244Z" fill="#B8D7F1"/>
<path fill-rule="evenodd" clip-rule="evenodd" d="M405.558 326.159C405.552 326.067 405.579 325.968 405.639 325.895C405.7 325.823 405.787 325.776 405.888 325.77C411.443 325.301 478.825 319.569 484.38 319.1C484.474 319.093 484.575 319.12 484.649 319.179C484.723 319.239 484.77 319.324 484.777 319.423C484.851 320.256 485.033 322.316 485.107 323.148C485.114 323.24 485.087 323.339 485.026 323.412C484.965 323.485 484.878 323.531 484.777 323.538C479.222 324.006 411.84 329.739 406.286 330.207C406.191 330.214 406.09 330.188 406.016 330.122C405.942 330.062 405.895 329.976 405.888 329.877C405.814 329.045 405.632 326.985 405.558 326.153V326.159Z" fill="#B8D7F1"/>
<path fill-rule="evenodd" clip-rule="evenodd" d="M437.62 314.814C437.513 313.625 438.408 312.582 439.62 312.483C447.464 311.816 474.119 309.551 481.963 308.884C483.175 308.778 484.238 309.657 484.339 310.845L484.353 310.977C484.461 312.166 483.565 313.209 482.353 313.308C474.51 313.975 447.854 316.24 440.011 316.907C438.799 317.013 437.735 316.135 437.634 314.946L437.62 314.814Z" fill="#0686BF"/>
<path fill-rule="evenodd" clip-rule="evenodd" d="M516.058 329.243L528.951 313.11C529.833 312 531.47 311.809 532.601 312.674C533.732 313.539 533.927 315.144 533.045 316.253L518.381 334.605C517.93 335.173 517.25 335.523 516.516 335.576C515.782 335.629 515.062 335.371 514.536 334.869L504.269 325.181C503.239 324.204 503.205 322.593 504.195 321.576C505.191 320.565 506.834 320.532 507.871 321.503L516.065 329.236L516.058 329.243Z" fill="#3570B7"/>
<path fill-rule="evenodd" clip-rule="evenodd" d="M497.993 313.863C497.609 309.551 500.868 305.754 505.264 305.378C512.334 304.777 523.908 303.793 530.977 303.192C535.374 302.815 539.245 306.012 539.629 310.324C540.221 317.06 541.184 327.923 541.776 334.659C542.16 338.971 538.902 342.768 534.505 343.144C527.436 343.745 515.862 344.729 508.792 345.33C504.396 345.707 500.524 342.511 500.141 338.198L497.993 313.863ZM501.689 313.553C501.487 311.242 503.231 309.208 505.581 309.01C512.65 308.409 524.224 307.425 531.293 306.824C533.65 306.626 535.724 308.336 535.926 310.641C536.518 317.377 537.481 328.24 538.073 334.976C538.275 337.287 536.532 339.321 534.182 339.519C527.112 340.12 515.539 341.104 508.469 341.705C506.113 341.903 504.039 340.193 503.837 337.888L501.689 313.553Z" fill="#B8D7F1"/>
<path fill-rule="evenodd" clip-rule="evenodd" d="M401.282 277.741C401.275 277.648 401.302 277.549 401.363 277.476C401.423 277.404 401.511 277.358 401.612 277.351C407.167 276.882 474.549 271.15 480.103 270.681C480.198 270.675 480.299 270.701 480.373 270.76C480.447 270.82 480.494 270.906 480.501 271.005C480.575 271.837 480.756 273.897 480.83 274.729C480.837 274.822 480.81 274.921 480.75 274.993C480.689 275.066 480.602 275.112 480.501 275.119C474.946 275.588 407.564 281.32 402.009 281.789C401.915 281.795 401.814 281.769 401.74 281.703C401.666 281.643 401.619 281.558 401.612 281.459C401.538 280.626 401.356 278.566 401.282 277.734V277.741Z" fill="#B8D7F1"/>
<path fill-rule="evenodd" clip-rule="evenodd" d="M400.26 266.171C400.253 266.078 400.28 265.979 400.341 265.906C400.401 265.834 400.489 265.787 400.59 265.781C406.145 265.312 473.527 259.58 479.081 259.111C479.176 259.104 479.277 259.131 479.351 259.197C479.425 259.263 479.472 259.342 479.479 259.441C479.553 260.273 479.734 262.334 479.808 263.166C479.815 263.258 479.788 263.357 479.728 263.43C479.667 263.503 479.58 263.549 479.479 263.555C473.924 264.024 406.542 269.756 400.987 270.225C400.893 270.232 400.792 270.205 400.718 270.146C400.644 270.087 400.597 270.001 400.59 269.902C400.516 269.07 400.334 267.009 400.26 266.177V266.171Z" fill="#B8D7F1"/>
<path fill-rule="evenodd" clip-rule="evenodd" d="M399.189 254.086C399.183 253.993 399.21 253.894 399.27 253.822C399.331 253.749 399.418 253.703 399.519 253.696C405.074 253.227 472.456 247.495 478.011 247.026C478.105 247.02 478.206 247.046 478.28 247.106C478.354 247.165 478.401 247.251 478.408 247.35C478.482 248.182 478.664 250.242 478.738 251.074C478.745 251.167 478.718 251.266 478.657 251.339C478.597 251.411 478.509 251.458 478.408 251.464C472.853 251.933 405.471 257.665 399.917 258.134C399.822 258.141 399.721 258.114 399.647 258.048C399.573 257.989 399.526 257.903 399.519 257.804C399.445 256.972 399.264 254.911 399.189 254.079V254.086Z" fill="#B8D7F1"/>
<path fill-rule="evenodd" clip-rule="evenodd" d="M431.251 242.74C431.143 241.552 432.039 240.508 433.251 240.409C441.095 239.742 467.75 237.477 475.594 236.81C476.806 236.704 477.869 237.583 477.97 238.771L477.984 238.904C478.092 240.092 477.196 241.136 475.984 241.235C468.14 241.902 441.485 244.167 433.641 244.834C432.429 244.939 431.366 244.061 431.265 242.872L431.251 242.74Z" fill="#0686BF"/>
<path fill-rule="evenodd" clip-rule="evenodd" d="M509.614 257.176L522.507 241.043C523.389 239.934 525.025 239.742 526.156 240.608C527.287 241.473 527.483 243.077 526.601 244.187L511.937 262.539C511.485 263.107 510.805 263.457 510.072 263.509C509.338 263.562 508.617 263.305 508.092 262.803L497.825 253.115C496.794 252.138 496.761 250.526 497.75 249.509C498.747 248.499 500.39 248.466 501.427 249.437L509.62 257.17L509.614 257.176Z" fill="#3570B7"/>
<path fill-rule="evenodd" clip-rule="evenodd" d="M491.631 241.79C491.247 237.477 494.506 233.68 498.902 233.304C505.972 232.703 517.545 231.719 524.615 231.118C529.011 230.742 532.883 233.938 533.267 238.25C533.859 244.986 534.822 255.849 535.414 262.585C535.798 266.897 532.539 270.694 528.143 271.071C521.073 271.672 509.5 272.656 502.43 273.257C498.034 273.633 494.162 270.437 493.779 266.125L491.631 241.79ZM495.327 241.479C495.125 239.168 496.869 237.134 499.219 236.936C506.288 236.335 517.862 235.351 524.931 234.75C527.288 234.552 529.362 236.262 529.564 238.567C530.156 245.303 531.119 256.166 531.711 262.902C531.913 265.213 530.17 267.247 527.82 267.445C520.75 268.046 509.177 269.03 502.107 269.631C499.751 269.829 497.677 268.119 497.475 265.814L495.327 241.479Z" fill="#B8D7F1"/>
<path fill-rule="evenodd" clip-rule="evenodd" d="M394.913 205.667C394.906 205.575 394.933 205.476 394.994 205.403C395.055 205.33 395.142 205.284 395.243 205.277C400.798 204.809 468.18 199.077 473.734 198.608C473.829 198.601 473.93 198.627 474.004 198.687C474.078 198.746 474.125 198.832 474.132 198.931C474.206 199.763 474.387 201.824 474.462 202.656C474.468 202.748 474.441 202.847 474.381 202.92C474.32 202.993 474.233 203.039 474.132 203.045C468.577 203.514 401.195 209.246 395.64 209.715C395.546 209.722 395.445 209.695 395.371 209.629C395.297 209.57 395.25 209.484 395.243 209.385C395.169 208.553 394.987 206.493 394.913 205.66V205.667Z" fill="#B8D7F1"/>
<path fill-rule="evenodd" clip-rule="evenodd" d="M393.889 194.097C393.883 194.005 393.91 193.906 393.97 193.833C394.031 193.76 394.118 193.714 394.219 193.707C399.774 193.239 467.156 187.506 472.711 187.038C472.805 187.031 472.906 187.057 472.98 187.123C473.054 187.183 473.101 187.269 473.108 187.368C473.182 188.2 473.364 190.26 473.438 191.092C473.445 191.185 473.418 191.284 473.357 191.356C473.296 191.429 473.209 191.475 473.108 191.482C467.553 191.951 400.171 197.683 394.617 198.152C394.522 198.158 394.421 198.132 394.347 198.072C394.273 198.013 394.226 197.927 394.219 197.828C394.145 196.996 393.963 194.936 393.889 194.104V194.097Z" fill="#B8D7F1"/>
<path fill-rule="evenodd" clip-rule="evenodd" d="M392.826 182.012C392.819 181.92 392.846 181.821 392.907 181.748C392.968 181.676 393.055 181.629 393.156 181.623C398.711 181.154 466.093 175.422 471.647 174.953C471.742 174.946 471.843 174.973 471.917 175.032C471.991 175.092 472.038 175.177 472.045 175.276C472.119 176.109 472.301 178.169 472.375 179.001C472.381 179.093 472.354 179.193 472.294 179.265C472.233 179.338 472.146 179.384 472.045 179.391C466.49 179.859 399.108 185.592 393.553 186.06C393.459 186.067 393.358 186.041 393.284 185.975C393.21 185.915 393.163 185.829 393.156 185.73C393.082 184.898 392.9 182.838 392.826 182.006V182.012Z" fill="#B8D7F1"/>
<path fill-rule="evenodd" clip-rule="evenodd" d="M424.881 170.667C424.773 169.478 425.669 168.435 426.881 168.336C434.724 167.669 461.38 165.404 469.223 164.737C470.435 164.631 471.499 165.509 471.6 166.698L471.613 166.83C471.721 168.019 470.826 169.062 469.614 169.161C461.77 169.828 435.115 172.093 427.271 172.76C426.059 172.866 424.995 171.988 424.894 170.799L424.881 170.667Z" fill="#0686BF"/>
<path fill-rule="evenodd" clip-rule="evenodd" d="M502.45 184.521L517.996 170.825C519.06 169.887 520.709 169.973 521.665 171.017C522.622 172.06 522.534 173.678 521.47 174.616L503.79 190.201C503.244 190.683 502.517 190.914 501.783 190.841C501.056 190.768 500.39 190.392 499.952 189.811L491.55 178.532C490.701 177.396 490.957 175.798 492.115 174.972C493.273 174.14 494.902 174.391 495.744 175.527L502.45 184.535V184.521Z" fill="#3570B7"/>
<path fill-rule="evenodd" clip-rule="evenodd" d="M485.262 169.716C484.878 165.404 488.137 161.607 492.533 161.23C499.603 160.629 511.177 159.645 518.246 159.045C522.643 158.668 526.514 161.864 526.898 166.177C527.49 172.912 528.453 183.776 529.046 190.511C529.429 194.824 526.171 198.621 521.774 198.997C514.705 199.598 503.131 200.582 496.061 201.183C491.665 201.56 487.793 198.363 487.41 194.051L485.262 169.716ZM488.958 169.406C488.756 167.095 490.5 165.061 492.85 164.862C499.919 164.261 511.493 163.278 518.563 162.677C520.919 162.478 522.993 164.189 523.195 166.494C523.787 173.229 524.75 184.093 525.342 190.828C525.544 193.14 523.801 195.174 521.451 195.372C514.381 195.973 502.808 196.957 495.738 197.558C493.382 197.756 491.308 196.045 491.106 193.741L488.958 169.406Z" fill="#B8D7F1"/>
<path d="M143.537 266.56L159.689 355.295L185.536 345.786L288.925 326.773L298.621 310.931V288.742L301.852 263.391L285.694 244.378L266.31 234.869L143.537 266.56Z" fill="#37302D"/>
<path d="M498.896 468.813C483.625 456.286 454.641 441.13 419.967 448.289L419.509 449.926C419.509 449.926 398.193 423.756 380.62 393.319C369.039 373.263 347.77 360.452 324.293 359.468C313.292 359.006 303.522 358.596 290.528 358.94L289.377 358.425C282.496 355.361 274.524 355.737 267.993 359.468C259.772 364.17 247.101 370.49 232.619 374.459C220.971 377.655 201.607 379.643 189.704 380.633C183.483 381.148 178.285 385.487 176.77 391.43L175.72 395.558C125.762 436.098 116.477 461.84 115.063 467.195C113.232 474.103 116.141 481.618 116.141 481.618C116.141 481.618 142.944 601.879 202.799 663.221C202.671 663.598 198.517 675.372 193.791 692.033C188.828 709.56 183.24 732.501 181.059 753.29H466.827C466.827 753.29 445.699 653.547 425.481 596.768C425.481 596.768 439.923 596.82 457.711 594.912C457.711 594.912 491.388 602.513 487.921 549.029L494.257 522.264C494.257 522.264 495.118 522.304 495.502 522.264C497.239 522.072 498.734 521.306 499.205 519.583L506.544 492.402C508.88 483.751 505.904 474.558 498.909 468.82L498.896 468.813Z" fill="#3570B7"/>
<path d="M386.848 753.284H328.946C333.665 700.632 326.232 650.641 326.232 650.641C333.511 641.198 339.725 631.233 344.128 623.639C348.525 616.031 351.11 610.794 351.11 610.794C352.605 611.567 354.456 611.171 355.487 609.856L372.433 588.097C374.453 585.508 374.81 581.771 372.716 579.222C340.028 539.394 314.416 520.065 299.658 510.008C298.284 509.07 296.419 509.308 295.396 510.602L282.26 532.011C270.006 500.894 190.936 387.561 190.936 387.561L266.748 365.986C273.689 364.177 281.021 367.016 284.832 372.986C293.457 386.504 304.667 403.106 315.918 419.219C315.918 419.219 316.126 419.51 316.517 420.084C334.258 445.462 351.958 469.474 359.573 478.078C372.601 492.818 380.351 511.322 381.745 530.776C382.149 536.37 382.519 542.168 382.862 548.105V548.118C383.179 553.658 383.475 559.325 383.744 565.09C384.485 580.741 385.057 597.045 385.501 613.238C385.791 623.863 386.02 634.429 386.208 644.724V644.738C386.208 644.738 386.208 644.751 386.208 644.757C387.279 703.458 386.848 753.29 386.848 753.29V753.284Z" fill="#0B4E93"/>
<path d="M193.784 692.034C202.038 704.317 225.226 733.525 255.012 726.393C280.981 720.173 303.206 697.944 303.206 697.944L304.27 676.885L289.976 692.655C261.152 747.023 231.939 697.383 220.93 684.169C213.497 675.247 202.799 663.222 202.799 663.222C202.671 663.598 198.517 675.373 193.79 692.034H193.784Z" fill="#0B4E93"/>
<path d="M406.884 526.273C413.893 568.92 425.466 596.768 425.466 596.768C425.466 596.768 439.908 596.821 457.696 594.912C418.626 595.361 407.597 530.645 406.884 526.273Z" fill="#0B4E93"/>
<path d="M233.38 619.683C233.38 619.683 217.511 630.638 211.189 646.303C211.189 646.303 210.731 641.469 212.273 635.228C213.107 631.847 215.336 628.968 218.386 627.185C222.197 624.959 227.974 621.796 233.38 619.683Z" fill="#0B4E93"/>
<path d="M466.996 478.865C466.996 478.865 492.924 484.821 497.536 477.894C504.013 468.16 458.358 447.873 458.358 447.873L466.996 478.871V478.865Z" fill="#204269"/>
<path d="M228.418 665.592C228.418 665.592 222.453 646.263 233.38 619.683C233.38 619.683 228.128 628.968 224.143 638.18C222.486 642.004 222.251 646.27 223.422 650.265C224.641 654.405 226.418 660.124 228.418 665.592Z" fill="#0B4E93"/>
<g style="mix-blend-mode:multiply" opacity="0.4">
<path d="M374.998 753.29H386.841C386.841 753.29 387.265 703.458 386.201 644.751C386.201 644.751 386.201 644.744 386.201 644.737C386.928 694.001 375.004 753.29 375.004 753.29H374.998Z" fill="#204269"/>
</g>
<path d="M494.25 522.258L491.718 532.943C491.718 532.943 456.761 516.671 437.721 506.944C437.721 506.944 460.714 518.395 494.25 522.258Z" fill="#0B4E93"/>
<g style="mix-blend-mode:multiply" opacity="0.4">
<path d="M276.881 382.694C276.881 382.694 293.416 390.083 306.182 404.942C306.182 404.942 285.175 401.482 280.772 419.946C280.772 419.946 281.944 398.186 276.881 382.694Z" fill="#204269"/>
</g>
<g style="mix-blend-mode:multiply" opacity="0.4">
<path d="M224.312 409.168C224.312 409.168 247.452 410.172 269.058 421.597C269.058 421.597 236.303 418.057 239.911 443.422C239.911 443.422 234.249 422.884 224.312 409.168Z" fill="#204269"/>
</g>
<path d="M246.549 595.071C246.549 595.071 246.111 585.363 231.286 578.39C231.286 578.39 219.052 550.132 205.209 529.944C205.209 529.944 232.841 563.993 249.788 589.154L246.556 595.064L246.549 595.071Z" fill="#0B4E93"/>
<path d="M278.396 437.617C280.021 437.617 281.338 436.325 281.338 434.731C281.338 433.137 280.021 431.845 278.396 431.845C276.771 431.845 275.453 433.137 275.453 434.731C275.453 436.325 276.771 437.617 278.396 437.617Z" fill="white"/>
<path d="M310.094 489.021C311.719 489.021 313.037 487.729 313.037 486.135C313.037 484.542 311.719 483.25 310.094 483.25C308.469 483.25 307.152 484.542 307.152 486.135C307.152 487.729 308.469 489.021 310.094 489.021Z" fill="white"/>
<path d="M360.448 700.493C362.073 700.493 363.39 699.201 363.39 697.607C363.39 696.013 362.073 694.721 360.448 694.721C358.823 694.721 357.506 696.013 357.506 697.607C357.506 699.201 358.823 700.493 360.448 700.493Z" fill="white"/>
<path d="M354.045 626.511C355.67 626.511 356.987 625.219 356.987 623.626C356.987 622.032 355.67 620.74 354.045 620.74C352.42 620.74 351.103 622.032 351.103 623.626C351.103 625.219 352.42 626.511 354.045 626.511Z" fill="white"/>
<path d="M419.967 448.289C419.967 448.289 436.092 473.614 466.996 478.864C466.996 478.864 454.843 437.056 448.548 408.646C446.885 401.151 449.181 393.345 454.634 387.851L464.976 377.443L468.874 375.68L478.9 368.892C481.539 367.102 482.535 363.747 481.29 360.855L480.589 359.23C481.774 357.328 481.714 354.925 480.435 353.082L478.314 350.031L478.751 348.796C479.97 345.343 479.075 341.519 476.469 338.91C470.147 332.564 463.798 328.245 463.798 328.245L481.249 311.274L503.124 293.08C504.632 291.826 504.915 289.653 503.777 288.068C502.586 286.411 500.27 285.975 498.546 287.097L473.857 303.092L434.079 328.833L429.184 315.196C429.184 315.196 428.417 297.928 416.23 295.814C413.012 295.26 410.555 298.568 412.083 301.401C414.17 305.271 416.762 310.838 417.967 316.458C420.533 328.443 418.6 343.824 418.6 343.824C418.6 343.824 406.744 375.806 413.221 400.788L419.96 448.295L419.967 448.289Z" fill="#FCC8A1"/>
<path d="M331.355 543.859C331.355 543.859 332.762 535.142 334.122 528.505C336.23 518.256 342.835 509.447 352.166 504.395C356.449 502.077 361.525 499.033 367.066 495.136L372.668 495.817C375.482 496.16 378.324 495.453 380.64 493.849L384.881 490.89C386.107 490.038 386.908 488.724 387.096 487.265L387.561 483.666L388.988 481.09C390.025 479.221 390.254 477.022 389.635 474.982L388.531 471.376C388.531 471.376 392.052 469.619 395.095 465.875C397.492 462.923 397.014 458.611 394.099 456.154C391.008 453.546 385.952 450.059 378.122 446.592L394.96 435.92L409.941 427.435C409.941 427.435 421.696 424.938 422.565 417.205C422.848 414.683 420.208 412.834 417.879 413.936C412.89 416.307 404.104 420.336 398.461 422.059C398.461 422.059 372.244 433.688 354.355 438.146C354.355 438.146 359.108 421.293 349.877 413.375C347.184 411.064 342.969 413.005 343.043 416.519L343.205 424.06C343.313 429.033 342.303 433.966 340.243 438.509L335.698 448.527C335.025 450.006 334.459 451.532 334.015 453.09C332.291 459.146 326.252 477.234 312.827 489.127C310.517 491.174 308.659 493.664 307.454 496.483L300.781 512.108C300.781 512.108 316.139 532.012 331.342 543.852L331.355 543.859Z" fill="#FCC8A1"/>
<path d="M255.746 308.521L276.779 393.828L278.785 425.823L267.063 412.966C260.23 405.471 250.911 400.597 240.758 399.217L199.843 393.643C194.968 392.976 191.003 389.456 189.845 384.761L175.726 327.493L255.752 308.514L255.746 308.521Z" fill="#FCC597"/>
<path d="M241.729 369.942C212.293 376.922 182.661 359.178 175.545 330.306L159.803 266.448C152.687 237.576 170.778 208.513 200.214 201.533C229.65 194.553 259.281 212.297 266.398 241.169L282.139 305.027C289.256 333.899 271.165 362.962 241.729 369.942Z" fill="#FCC597"/>
<path d="M267.427 355.916L270.033 366.495C263.368 368.568 252.494 371.428 241.486 368.965C249.929 368.925 261.779 361.899 267.427 355.916Z" fill="#F6A56F"/>
<path d="M255.79 275.58C256.827 273.108 255.625 270.279 253.104 269.262C250.584 268.244 247.7 269.423 246.662 271.896C245.625 274.368 246.827 277.197 249.348 278.214C251.868 279.232 254.752 278.052 255.79 275.58Z" fill="#1B1A2E"/>
<path d="M205.196 288.03C206.516 285.691 205.652 282.746 203.268 281.451C200.883 280.157 197.88 281.004 196.56 283.343C195.24 285.682 196.104 288.627 198.488 289.922C200.873 291.216 203.876 290.37 205.196 288.03Z" fill="#1B1A2E"/>
<path d="M237.049 294.949C237.715 296.944 238.449 298.912 239.19 300.873C239.924 302.841 240.705 304.789 241.479 306.737C241.883 307.721 242.287 308.646 242.449 309.656C242.644 310.653 242.644 311.683 242.482 312.687C242.307 313.684 241.91 314.662 241.196 315.395C240.469 316.161 239.715 316.907 239.001 317.68C239.816 316.999 240.604 316.299 241.412 315.599C242.226 314.847 242.704 313.816 242.947 312.773C243.196 311.716 243.196 310.62 243.028 309.557C242.879 308.487 242.442 307.47 242.058 306.506C241.264 304.565 240.469 302.616 239.634 300.695C238.799 298.766 237.958 296.838 237.056 294.943L237.049 294.949Z" fill="#1B1A2E"/>
<path d="M228.896 330.564C230.505 332.096 232.761 333.238 235.252 333.436C237.743 333.648 240.261 332.855 242.052 331.482C243.863 330.101 245.156 328.318 245.688 326.172C244.308 326.522 243.096 326.892 241.971 327.209C241.89 327.235 241.803 327.255 241.722 327.275C241.157 327.434 240.625 327.572 240.1 327.678C239.696 327.79 239.292 327.817 238.921 327.916C238.537 327.942 238.167 328.021 237.804 328.034C237.083 328.094 236.396 328.107 235.703 328.041C234.329 327.929 232.895 327.599 231.293 327.037C230.445 326.747 229.576 326.403 228.64 326.02C228.304 325.882 227.96 325.743 227.61 325.598C227.071 325.373 226.513 325.142 225.92 324.904C226.156 327.123 227.307 329.025 228.903 330.57L228.896 330.564Z" fill="#EE2D30"/>
<path d="M168.886 370.134C104.998 369.064 111.839 289.872 111.839 289.872C107.031 234.519 132.064 212.436 132.064 212.436C179.941 154.448 246.744 183.148 259.402 199.869C326.098 270.14 304.808 299.619 304.808 299.619C305.865 324.845 286.677 325.855 286.677 325.855C306.747 306.077 287.579 257.242 287.579 257.242C262.567 250.691 245.108 236.672 221.079 225.359C197.049 214.047 184.627 222.157 184.627 222.157C184.627 222.157 178.029 227.043 182.695 262.34C187.516 298.82 153.138 291.793 153.138 291.793C153.138 291.793 179.079 342.609 182.304 345.779C185.536 348.949 188.768 383.81 188.768 383.81C188.768 383.81 185.536 405.992 166.152 402.822C146.769 399.652 169.384 371.131 169.384 371.131" fill="#37302D"/>
<path d="M170.636 298.707C169.902 298.601 169.154 298.542 168.387 298.542C159.85 298.542 152.928 305.469 152.928 314.014C152.928 322.56 159.85 329.487 168.387 329.487C171.598 329.487 174.588 328.503 177.059 326.826L170.636 298.707Z" fill="#FCC597"/>
<path d="M166.152 323.603C169.721 323.603 172.615 320.055 172.615 315.679C172.615 311.302 169.721 307.754 166.152 307.754C162.582 307.754 159.688 311.302 159.688 315.679C159.688 320.055 162.582 323.603 166.152 323.603Z" fill="#F6A56F"/>
<path d="M255.678 261.938C257.106 262.512 256.85 264.071 255.308 263.952C246.824 263.292 240.428 262.354 239.6 267.525C238.718 272.999 228.935 251.22 255.678 261.938Z" fill="#1B1A2E"/>
<path d="M186.128 275.448C184.95 276.419 185.677 277.832 187.104 277.251C194.975 274.075 200.765 271.255 203.176 275.93C205.727 280.877 208.232 257.202 186.128 275.448Z" fill="#1B1A2E"/>
</g>
</svg>
