<svg width="330" height="392" viewBox="0 0 330 392" fill="none" xmlns="http://www.w3.org/2000/svg">
<path d="M90.6784 94.7206C103.056 93.2606 114.275 102.111 115.735 114.489L120.278 153.008L193.974 152.637C204.641 152.583 213.332 161.187 213.386 171.854C213.44 182.521 204.836 191.213 194.169 191.267L124.833 191.616L127.46 213.893L227.673 213.387C237.309 213.339 245.562 219.337 248.841 227.82L281.5 303.523L303.179 294.518C313.03 290.425 324.333 295.094 328.425 304.945C332.518 314.796 327.849 326.101 317.998 330.193L278.18 346.734C277.733 346.92 277.282 347.087 276.829 347.237C266.298 351.44 254.271 346.516 249.752 336.04L217.077 260.305L108.321 260.856C99.9955 260.898 92.7009 256.426 88.7557 249.737C86.8078 246.85 85.5008 243.469 85.0647 239.772L70.9103 119.777C69.4503 107.399 78.301 96.1809 90.6784 94.7206Z" fill="#0087FF"/>
<path d="M96.1101 0C119.902 0 139.188 19.2868 139.188 43.0783C139.188 66.8697 119.902 86.1565 96.1101 86.1565C72.3187 86.1565 53.0319 66.8697 53.0319 43.0783C53.0319 19.2868 72.3187 0 96.1101 0Z" fill="#0087FF"/>
<path d="M67.5818 209.065C47.5813 224.287 34.6704 248.344 34.6704 275.418C34.6704 321.441 71.9792 358.75 118.002 358.75C162.81 358.75 199.356 323.384 201.254 279.043L208.637 278.954L225.412 318.242C208.167 361.033 166.26 391.235 117.296 391.235C52.9419 391.235 0.772705 339.066 0.772705 274.712C0.772705 229.949 26.0125 191.081 63.037 171.565L67.5818 209.065Z" fill="#0087FF"/>
</svg>
